<?xml version="1.0" encoding="UTF-8" standalone="no"?>
<!-- Created with Inkscape (http://www.inkscape.org/) -->

<svg
   xmlns:dc="http://purl.org/dc/elements/1.1/"
   xmlns:cc="http://creativecommons.org/ns#"
   xmlns:rdf="http://www.w3.org/1999/02/22-rdf-syntax-ns#"
   xmlns:svg="http://www.w3.org/2000/svg"
   xmlns="http://www.w3.org/2000/svg"
   xmlns:sodipodi="http://sodipodi.sourceforge.net/DTD/sodipodi-0.dtd"
   xmlns:inkscape="http://www.inkscape.org/namespaces/inkscape"
   width="48"
   height="48"
   viewBox="0 0 48 48"
   id="svg2"
   version="1.1"
   inkscape:version="0.91 r13725"
   sodipodi:docname="tCMS.svg">
  <defs
     id="defs4" />
  <sodipodi:namedview
     id="base"
     pagecolor="#ffffff"
     bordercolor="#666666"
     borderopacity="1.0"
     inkscape:pageopacity="0.0"
     inkscape:pageshadow="2"
     inkscape:zoom="15.770833"
     inkscape:cx="24"
     inkscape:cy="24"
     inkscape:document-units="px"
     inkscape:current-layer="layer1"
     showgrid="false"
     units="px"
     inkscape:window-width="1920"
     inkscape:window-height="967"
     inkscape:window-x="0"
     inkscape:window-y="40"
     inkscape:window-maximized="1" />
  <metadata
     id="metadata7">
    <rdf:RDF>
      <cc:Work
         rdf:about="">
        <dc:format>image/svg+xml</dc:format>
        <dc:type
           rdf:resource="http://purl.org/dc/dcmitype/StillImage" />
        <dc:title></dc:title>
        <cc:license
           rdf:resource="http://creativecommons.org/publicdomain/zero/1.0/" />
      </cc:Work>
      <cc:License
         rdf:about="http://creativecommons.org/publicdomain/zero/1.0/">
        <cc:permits
           rdf:resource="http://creativecommons.org/ns#Reproduction" />
        <cc:permits
           rdf:resource="http://creativecommons.org/ns#Distribution" />
        <cc:permits
           rdf:resource="http://creativecommons.org/ns#DerivativeWorks" />
      </cc:License>
    </rdf:RDF>
  </metadata>
  <g
     inkscape:label="Layer 1"
     inkscape:groupmode="layer"
     id="layer1"
     transform="translate(0,-1004.3622)">
    <g
       id="g3417"
       transform="matrix(1.2789959,0,0,1.2823782,-1251.3333,-255.13759)">
      <path
         style="fill:#9fcafe"
         d="m 979.01788,1000.9336 0,-18.12495 18.125,0 18.12502,0 0,18.12495 0,18.125 -18.12502,0 -18.125,0 0,-18.125 z"
         id="path3435"
         inkscape:connector-curvature="0" />
      <path
         style="fill:#87bffe"
         d="m 979.01788,1000.9826 0,-18.17395 18.125,0 18.12502,0 0,15 0,14.99995 -3.125,0 c -2.4636,0 -3.125,0.6338 -3.125,2.994 0,2.9823 -0.059,2.9947 -15.00002,3.174 l -15,0.18 0,-18.174 z m 24.32162,15.6624 c 0.3955,-0.64 0.2412,-1.459 -0.3429,-1.82 -0.5841,-0.361 -1.0621,0.1626 -1.0621,1.1636 0,2.1077 0.3942,2.2919 1.405,0.6564 z"
         id="path3433"
         inkscape:connector-curvature="0" />
      <path
         style="fill:#73b0fc"
         d="m 979.01788,1000.9336 0,-18.12495 18.125,0 18.12502,0 0,11.16306 c 0,10.62479 -0.1356,11.18229 -2.8125,11.56249 -3.976,0.5647 -3.7495,5.0261 0.3125,6.156 l 3.125,0.8692 -3.3545,0.1246 c -2.6135,0.097 -3.4418,0.8258 -3.75,3.299 -0.3945,3.1662 -0.3997,3.1674 -2.0503,0.4942 -0.9101,-1.4741 -1.0508,-2.3068 -0.3125,-1.8506 0.7383,0.4563 1.3423,0.2339 1.3423,-0.4942 0,-1.4462 -4.0824,-1.8247 -5.4058,-0.5013 -0.4524,0.4524 -0.1243,1.6854 0.7291,2.74 1.2377,1.5295 1.2355,1.7275 -0.011,0.9787 -0.8593,-0.5163 -1.5624,-0.343 -1.5624,0.3851 0,0.8336 -4.16539,1.3237 -11.25002,1.3237 l -11.25,0 0,-18.125 z"
         id="path3431"
         inkscape:connector-curvature="0" />
      <path
         style="fill:#5e95da"
         d="m 979.01788,1000.9336 0,-18.12495 18.125,0 18.12502,0 0,7.5 c 0,7.16667 -0.1389,7.5 -3.125,7.5 -2.4773,0 -3.125,0.63053 -3.125,3.04195 0,2.359 0.7718,3.1589 3.4375,3.5627 l 3.4375,0.5208 -3.4375,0.1873 c -2.757,0.1502 -3.4375,0.7894 -3.4375,3.2292 0,2.359 0.7718,3.1589 3.4375,3.5627 l 3.4375,0.5208 -3.3545,0.1873 c -2.6389,0.1473 -3.4655,0.9205 -3.8752,3.6247 l -0.5207,3.4375 -0.1873,-3.4375 c -0.1517,-2.7833 -0.782,-3.4375 -3.3123,-3.4375 -2.5,0 -3.125,0.625 -3.125,3.125 0,3.1019 -0.083,3.125 -11.25002,3.125 l -11.25,0 0,-18.125 z m 28.75002,7.5 c 0,-2.5 -0.625,-3.125 -3.125,-3.125 -2.5,0 -3.125,0.625 -3.125,3.125 0,2.5 0.625,3.125 3.125,3.125 2.5,0 3.125,-0.625 3.125,-3.125 z"
         id="path3429"
         inkscape:connector-curvature="0" />
      <path
         style="fill:#4e79b1"
         d="m 979.01788,1000.9336 0,-18.12495 18.125,0 18.12502,0 0,7.5 c 0,7.16667 -0.1389,7.5 -3.125,7.5 -2.4773,0 -3.125,0.63053 -3.125,3.04195 0,2.359 0.7718,3.1589 3.4375,3.5627 l 3.4375,0.5208 -3.4375,0.1873 c -2.757,0.1502 -3.4375,0.7894 -3.4375,3.2292 0,2.359 0.7718,3.1589 3.4375,3.5627 l 3.4375,0.5208 -3.3545,0.1873 c -2.6389,0.1473 -3.4655,0.9205 -3.8752,3.6247 l -0.5207,3.4375 -0.1873,-3.4375 c -0.1517,-2.7833 -0.782,-3.4375 -3.3123,-3.4375 -2.5,0 -3.125,0.625 -3.125,3.125 0,2.7381 -0.5417,3.125 -4.37502,3.125 -3.83333,0 -4.375,-0.3869 -4.375,-3.125 0,-2.5 -0.625,-3.125 -3.125,-3.125 -2.5,0 -3.125,0.625 -3.125,3.125 0,2.6389 -0.58333,3.125 -3.75,3.125 l -3.75,0 0,-18.125 z m 28.75002,7.5 c 0,-2.5 -0.625,-3.125 -3.125,-3.125 -2.5,0 -3.125,0.625 -3.125,3.125 0,2.5 0.625,3.125 3.125,3.125 2.5,0 3.125,-0.625 3.125,-3.125 z m 0,-7.5 c 0,-2.49995 -0.625,-3.12495 -3.125,-3.12495 -2.5,0 -3.125,0.625 -3.125,3.12495 0,2.5 0.625,3.125 3.125,3.125 2.5,0 3.125,-0.625 3.125,-3.125 z"
         id="path3427"
         inkscape:connector-curvature="0" />
      <path
         style="fill:#466591"
         d="m 985.45517,1016.2461 c -0.15165,-2.7833 -0.78194,-3.4375 -3.31229,-3.4375 l -3.125,0 0,-14.99995 0,-15 18.125,0 18.12502,0 0,7.5 c 0,7.16667 -0.1389,7.5 -3.125,7.5 -2.4773,0 -3.125,0.63053 -3.125,3.04195 0,2.359 0.7718,3.1589 3.4375,3.5627 l 3.4375,0.5208 -3.4375,0.1873 c -2.757,0.1502 -3.4375,0.7894 -3.4375,3.2292 0,2.359 0.7718,3.1589 3.4375,3.5627 l 3.4375,0.5208 -3.3545,0.1873 c -2.6389,0.1473 -3.4655,0.9205 -3.8752,3.6247 l -0.5207,3.4375 -0.1873,-3.4375 c -0.1517,-2.7833 -0.782,-3.4375 -3.3123,-3.4375 -2.5,0 -3.125,0.625 -3.125,3.125 0,2.7381 -0.5417,3.125 -4.37502,3.125 -3.83333,0 -4.375,-0.3869 -4.375,-3.125 0,-2.4772 -0.63054,-3.125 -3.04197,-3.125 -2.35894,0 -3.1589,0.7719 -3.56271,3.4375 l -0.52074,3.4375 -0.18729,-3.4375 z m 7.31271,-7.8125 c 0,-2.5 -0.625,-3.125 -3.125,-3.125 -2.5,0 -3.125,0.625 -3.125,3.125 0,2.5 0.625,3.125 3.125,3.125 2.5,0 3.125,-0.625 3.125,-3.125 z m 15.00002,0 c 0,-2.5 -0.625,-3.125 -3.125,-3.125 -2.5,0 -3.125,0.625 -3.125,3.125 0,2.5 0.625,3.125 3.125,3.125 2.5,0 3.125,-0.625 3.125,-3.125 z m 0,-7.5 c 0,-2.49995 -0.625,-3.12495 -3.125,-3.12495 -2.5,0 -3.125,0.625 -3.125,3.12495 0,2.5 0.625,3.125 3.125,3.125 2.5,0 3.125,-0.625 3.125,-3.125 z m 0,-7.49995 c 0,-2.5 -0.625,-3.125 -3.125,-3.125 -2.5,0 -3.125,0.625 -3.125,3.125 0,2.5 0.625,3.125 3.125,3.125 2.5,0 3.125,-0.625 3.125,-3.125 z"
         id="path3425"
         inkscape:connector-curvature="0" />
      <path
         style="fill:#3a547a"
         d="m 985.45517,1016.3292 c -0.14734,-2.639 -0.92053,-3.4656 -3.62479,-3.8752 l -3.4375,-0.5208 3.4375,-0.1873 c 2.78339,-0.1516 3.4375,-0.7819 3.4375,-3.3123 0,-2.5 -0.625,-3.125 -3.125,-3.125 -3.10185,0 -3.125,-0.083 -3.125,-11.24995 l 0,-11.25 18.125,0 18.12502,0 0,7.5 c 0,7.16667 -0.1389,7.5 -3.125,7.5 -2.4773,0 -3.125,0.63053 -3.125,3.04195 0,2.359 0.7718,3.1589 3.4375,3.5627 l 3.4375,0.5208 -3.4375,0.1873 c -2.757,0.1502 -3.4375,0.7894 -3.4375,3.2292 0,2.359 0.7718,3.1589 3.4375,3.5627 l 3.4375,0.5208 -3.3545,0.1873 c -2.6389,0.1473 -3.4655,0.9205 -3.8752,3.6247 l -0.5207,3.4375 -0.1873,-3.4375 c -0.1517,-2.7833 -0.782,-3.4375 -3.3123,-3.4375 -2.5,0 -3.125,0.625 -3.125,3.125 0,2.7381 -0.5417,3.125 -4.37502,3.125 -3.83333,0 -4.375,-0.3869 -4.375,-3.125 0,-2.4772 -0.63054,-3.125 -3.04197,-3.125 -2.35894,0 -3.1589,0.7719 -3.56271,3.4375 l -0.52074,3.4375 -0.18729,-3.3544 z m 7.31271,-7.8956 c 0,-2.5 -0.625,-3.125 -3.125,-3.125 -2.5,0 -3.125,0.625 -3.125,3.125 0,2.5 0.625,3.125 3.125,3.125 2.5,0 3.125,-0.625 3.125,-3.125 z m 15.00002,0 c 0,-2.5 -0.625,-3.125 -3.125,-3.125 -2.5,0 -3.125,0.625 -3.125,3.125 0,2.5 0.625,3.125 3.125,3.125 2.5,0 3.125,-0.625 3.125,-3.125 z m -15.00002,-7.5 c 0,-2.49995 -0.625,-3.12495 -3.125,-3.12495 -2.5,0 -3.125,0.625 -3.125,3.12495 0,2.5 0.625,3.125 3.125,3.125 2.5,0 3.125,-0.625 3.125,-3.125 z m 15.00002,0 c 0,-2.49995 -0.625,-3.12495 -3.125,-3.12495 -2.5,0 -3.125,0.625 -3.125,3.12495 0,2.5 0.625,3.125 3.125,3.125 2.5,0 3.125,-0.625 3.125,-3.125 z m 0,-7.49995 c 0,-2.5 -0.625,-3.125 -3.125,-3.125 -2.5,0 -3.125,0.625 -3.125,3.125 0,2.5 0.625,3.125 3.125,3.125 2.5,0 3.125,-0.625 3.125,-3.125 z"
         id="path3423"
         inkscape:connector-curvature="0" />
      <path
         style="fill:#fe0000"
         d="m 985.45517,1016.3292 c -0.14734,-2.639 -0.92053,-3.4656 -3.62479,-3.8752 l -3.4375,-0.5208 3.4375,-0.1873 c 2.75701,-0.1502 3.4375,-0.7894 3.4375,-3.2292 0,-2.359 -0.77184,-3.1589 -3.4375,-3.5627 l -3.4375,-0.5208 3.4375,-0.1873 c 2.78339,-0.1516 3.4375,-0.7819 3.4375,-3.3123 0,-2.49995 -0.625,-3.12495 -3.125,-3.12495 -2.98611,0 -3.125,-0.33333 -3.125,-7.5 l 0,-7.5 18.125,0 18.12502,0 0,7.5 c 0,7.16667 -0.1389,7.5 -3.125,7.5 -2.4773,0 -3.125,0.63053 -3.125,3.04195 0,2.359 0.7718,3.1589 3.4375,3.5627 l 3.4375,0.5208 -3.4375,0.1873 c -2.757,0.1502 -3.4375,0.7894 -3.4375,3.2292 0,2.359 0.7718,3.1589 3.4375,3.5627 l 3.4375,0.5208 -3.3545,0.1873 c -2.6389,0.1473 -3.4655,0.9205 -3.8752,3.6247 l -0.5207,3.4375 -0.1873,-3.4375 c -0.1517,-2.7833 -0.782,-3.4375 -3.3123,-3.4375 -2.5,0 -3.125,0.625 -3.125,3.125 0,2.7381 -0.5417,3.125 -4.37502,3.125 -3.83333,0 -4.375,-0.3869 -4.375,-3.125 0,-2.4772 -0.63054,-3.125 -3.04197,-3.125 -2.35894,0 -3.1589,0.7719 -3.56271,3.4375 l -0.52074,3.4375 -0.18729,-3.3544 z m 7.31271,-7.8956 c 0,-2.5 -0.625,-3.125 -3.125,-3.125 -2.5,0 -3.125,0.625 -3.125,3.125 0,2.5 0.625,3.125 3.125,3.125 2.5,0 3.125,-0.625 3.125,-3.125 z m 15.00002,0 c 0,-2.5 -0.625,-3.125 -3.125,-3.125 -2.5,0 -3.125,0.625 -3.125,3.125 0,2.5 0.625,3.125 3.125,3.125 2.5,0 3.125,-0.625 3.125,-3.125 z m -15.00002,-7.5 c 0,-2.49995 -0.625,-3.12495 -3.125,-3.12495 -2.5,0 -3.125,0.625 -3.125,3.12495 0,2.5 0.625,3.125 3.125,3.125 2.5,0 3.125,-0.625 3.125,-3.125 z m 15.00002,0 c 0,-2.49995 -0.625,-3.12495 -3.125,-3.12495 -2.5,0 -3.125,0.625 -3.125,3.12495 0,2.5 0.625,3.125 3.125,3.125 2.5,0 3.125,-0.625 3.125,-3.125 z m -15.00002,-7.49995 c 0,-2.5 -0.625,-3.125 -3.125,-3.125 -2.5,0 -3.125,0.625 -3.125,3.125 0,2.5 0.625,3.125 3.125,3.125 2.5,0 3.125,-0.625 3.125,-3.125 z m 15.00002,0 c 0,-2.5 -0.625,-3.125 -3.125,-3.125 -2.5,0 -3.125,0.625 -3.125,3.125 0,2.5 0.625,3.125 3.125,3.125 2.5,0 3.125,-0.625 3.125,-3.125 z"
         id="path3421"
         inkscape:connector-curvature="0" />
      <path
         style="fill:#151614"
         d="m 985.45517,1016.3292 c -0.14734,-2.639 -0.92053,-3.4656 -3.62479,-3.8752 l -3.4375,-0.5208 3.4375,-0.1873 c 2.75701,-0.1502 3.4375,-0.7894 3.4375,-3.2292 0,-2.359 -0.77184,-3.1589 -3.4375,-3.5627 l -3.4375,-0.5208 3.4375,-0.1873 c 2.75701,-0.1502 3.4375,-0.7894 3.4375,-3.2292 0,-2.35896 -0.77184,-3.15892 -3.4375,-3.56273 l -3.4375,-0.52074 3.4375,-0.18729 c 2.75701,-0.15021 3.4375,-0.78948 3.4375,-3.22926 0,-2.35894 -0.77184,-3.1589 -3.4375,-3.56271 l -3.4375,-0.52074 3.35447,-0.18729 c 2.63894,-0.14734 3.46555,-0.92053 3.87521,-3.62479 l 0.52074,-3.4375 0.18729,3.4375 c 0.15021,2.75701 0.78948,3.4375 3.22926,3.4375 2.35894,0 3.1589,-0.77184 3.56271,-3.4375 l 0.52074,-3.4375 0.18729,3.4375 c 0.27264,5.00407 6.03392,5.00407 6.79201,0 l 0.5207,-3.4375 0.1873,3.4375 c 0.1502,2.75701 0.7895,3.4375 3.2293,3.4375 2.3589,0 3.1588,-0.77184 3.5627,-3.4375 l 0.5207,-3.4375 0.1873,3.35447 c 0.1473,2.63894 0.9205,3.46555 3.6248,3.87521 l 3.4375,0.52074 -3.4375,0.18729 c -2.757,0.15021 -3.4375,0.78948 -3.4375,3.22926 0,2.35894 0.7718,3.1589 3.4375,3.56271 l 3.4375,0.52074 -3.4375,0.18729 c -2.757,0.15021 -3.4375,0.78948 -3.4375,3.22924 0,2.359 0.7718,3.1589 3.4375,3.5627 l 3.4375,0.5208 -3.4375,0.1873 c -2.757,0.1502 -3.4375,0.7894 -3.4375,3.2292 0,2.359 0.7718,3.1589 3.4375,3.5627 l 3.4375,0.5208 -3.3545,0.1873 c -2.6389,0.1473 -3.4655,0.9205 -3.8752,3.6247 l -0.5207,3.4375 -0.1873,-3.4375 c -0.1502,-2.757 -0.7895,-3.4375 -3.2293,-3.4375 -2.3589,0 -3.1589,0.7719 -3.5627,3.4375 l -0.5207,3.4375 -0.1873,-3.4375 c -0.1502,-2.757 -0.78951,-3.4375 -3.22929,-3.4375 -2.35894,0 -3.1589,0.7719 -3.56271,3.4375 l -0.52074,3.4375 -0.18729,-3.4375 c -0.15021,-2.757 -0.78948,-3.4375 -3.22926,-3.4375 -2.35894,0 -3.1589,0.7719 -3.56271,3.4375 l -0.52074,3.4375 -0.18729,-3.3544 z m 7.31271,-7.8956 c 0,-2.5 -0.625,-3.125 -3.125,-3.125 -2.5,0 -3.125,0.625 -3.125,3.125 0,2.5 0.625,3.125 3.125,3.125 2.5,0 3.125,-0.625 3.125,-3.125 z m 7.50002,0 c 0,-2.5 -0.62502,-3.125 -3.12502,-3.125 -2.5,0 -3.125,0.625 -3.125,3.125 0,2.5 0.625,3.125 3.125,3.125 2.5,0 3.12502,-0.625 3.12502,-3.125 z m 7.5,0 c 0,-2.5 -0.625,-3.125 -3.125,-3.125 -2.5,0 -3.125,0.625 -3.125,3.125 0,2.5 0.625,3.125 3.125,3.125 2.5,0 3.125,-0.625 3.125,-3.125 z m -15.00002,-7.5 c 0,-2.49995 -0.625,-3.12495 -3.125,-3.12495 -2.5,0 -3.125,0.625 -3.125,3.12495 0,2.5 0.625,3.125 3.125,3.125 2.5,0 3.125,-0.625 3.125,-3.125 z m 7.50002,0 c 0,-2.49995 -0.62502,-3.12495 -3.12502,-3.12495 -2.5,0 -3.125,0.625 -3.125,3.12495 0,2.5 0.625,3.125 3.125,3.125 2.5,0 3.12502,-0.625 3.12502,-3.125 z m 7.5,0 c 0,-2.49995 -0.625,-3.12495 -3.125,-3.12495 -2.5,0 -3.125,0.625 -3.125,3.12495 0,2.5 0.625,3.125 3.125,3.125 2.5,0 3.125,-0.625 3.125,-3.125 z m -15.00002,-7.49995 c 0,-2.5 -0.625,-3.125 -3.125,-3.125 -2.5,0 -3.125,0.625 -3.125,3.125 0,2.5 0.625,3.125 3.125,3.125 2.5,0 3.125,-0.625 3.125,-3.125 z m 7.50002,0 c 0,-2.5 -0.62502,-3.125 -3.12502,-3.125 -2.5,0 -3.125,0.625 -3.125,3.125 0,2.5 0.625,3.125 3.125,3.125 2.5,0 3.12502,-0.625 3.12502,-3.125 z m 7.5,0 c 0,-2.5 -0.625,-3.125 -3.125,-3.125 -2.5,0 -3.125,0.625 -3.125,3.125 0,2.5 0.625,3.125 3.125,3.125 2.5,0 3.125,-0.625 3.125,-3.125 z"
         id="path3419"
         inkscape:connector-curvature="0" />
    </g>
  </g>
</svg>
